M48
; DRILL file {KiCad 7.0.1} date dim. 15 oct. 2023 10:25:20
; FORMAT={-:-/ absolute / inch / decimal}
; #@! TF.CreationDate,2023-10-15T10:25:20+02:00
; #@! TF.GenerationSoftware,Kicad,Pcbnew,7.0.1
; #@! TF.FileFunction,Plated,1,4,PTH
FMAT,2
INCH
; #@! TA.AperFunction,Plated,PTH,ViaDrill
T1C0.0157
; #@! TA.AperFunction,Plated,PTH,ComponentDrill
T2C0.0315
; #@! TA.AperFunction,Plated,PTH,ComponentDrill
T3C0.0354
; #@! TA.AperFunction,Plated,PTH,ComponentDrill
T4C0.0394
; #@! TA.AperFunction,Plated,PTH,ComponentDrill
T5C0.0433
; #@! TA.AperFunction,Plated,PTH,ComponentDrill
T6C0.1772
%
G90
G05
T1
X4.5264Y-4.9028
X4.575Y-4.9
X4.625Y-4.9
X4.7Y-4.4
X4.7Y-5.2
X4.9Y-3.95
X5.025Y-3.45
X5.0759Y-4.1056
X5.077Y-4.0486
X5.08Y-3.96
X5.1Y-3.85
X5.12Y-3.35
X5.125Y-3.4
X5.125Y-5.5
X5.15Y-4.975
X5.254Y-4.1139
X5.33Y-5.39
X5.45Y-5.55
X5.55Y-5.1
X5.6Y-4.6
X5.61Y-5.24
X5.65Y-4.65
X5.6867Y-4.7575
X5.735Y-4.8287
X6.0994Y-5.3024
X6.28Y-4.45
X6.334Y-2.846
X6.63Y-4.75
X6.7785Y-3.05
X7.05Y-4.14
X7.05Y-4.275
X7.05Y-5.0
X7.0785Y-4.35
X7.102Y-4.08
X7.11Y-4.8
X7.15Y-4.75
X7.21Y-4.25
X7.28Y-4.25
X7.28Y-4.35
X7.3167Y-4.1533
X7.3485Y-4.825
X7.45Y-3.9459
T2
X4.1Y-2.9
X4.2Y-2.9
X4.5Y-5.1
X4.5Y-5.2
X4.5Y-5.3
X4.5Y-5.4
X4.5Y-5.5
X4.5Y-5.6
X4.5Y-5.7
X4.6Y-5.1
X4.6Y-5.2
X4.6Y-5.3
X4.6Y-5.4
X4.6Y-5.5
X4.6Y-5.6
X4.6Y-5.7
X5.1Y-2.8
X5.1Y-3.2
X5.1Y-4.3
X5.1Y-4.7
X5.1Y-4.8
X5.1Y-5.2
X5.1Y-5.3
X5.1Y-5.7
X5.25Y-2.8
X5.25Y-3.2
X5.25Y-4.3
X5.25Y-4.7
X5.25Y-4.8
X5.25Y-5.2
X5.25Y-5.3
X5.25Y-5.7
X5.3996Y-4.8345
X5.3996Y-4.9345
X5.4Y-2.8
X5.4Y-3.2
X5.4Y-4.3
X5.4Y-4.7
X5.55Y-2.8
X5.55Y-3.2
X5.55Y-4.3
X5.55Y-4.7
X5.7Y-4.3
X5.7Y-4.7
X5.85Y-4.3
X5.85Y-4.7
X6.0Y-4.3
X6.0Y-4.7
X6.1Y-4.8016
X6.1Y-4.9984
X7.3961Y-2.2358
X7.3961Y-2.5035
X7.3961Y-2.9358
X7.3961Y-3.2035
X7.5063Y-2.2358
X7.5063Y-2.3185
X7.5063Y-2.4209
X7.5063Y-2.5035
X7.5063Y-2.9358
X7.5063Y-3.0185
X7.5063Y-3.1209
X7.5063Y-3.2035
T3
X4.0Y-4.85
X4.0Y-5.1
X4.0Y-5.35
X4.1Y-4.85
X4.1Y-5.1
X4.1Y-5.35
X4.2Y-4.85
X4.2Y-5.1
X4.2Y-5.35
X4.3Y-4.85
X4.3Y-5.1
X4.3Y-5.35
X4.4Y-4.85
X4.5Y-4.85
T4
X4.0785Y-3.1118
X4.0785Y-3.2118
X4.1785Y-3.1118
X4.1785Y-3.2118
X4.2785Y-3.1118
X4.2785Y-3.2118
X4.3785Y-3.1118
X4.3785Y-3.2118
X4.85Y-2.5
X4.85Y-2.6
X4.85Y-2.7
X4.85Y-2.8
X4.85Y-2.9
X4.85Y-3.0
X4.85Y-3.1
X4.85Y-3.2
X4.85Y-3.3
X4.85Y-3.4
X4.85Y-3.5
X4.85Y-3.6
X4.85Y-3.7
X4.85Y-3.8
X4.85Y-3.9
X4.85Y-4.0
X4.85Y-4.1
X4.85Y-4.2
X4.85Y-4.3
X4.85Y-4.4
X4.85Y-4.5
X4.85Y-4.6
X4.85Y-4.7
X4.85Y-4.8
X4.85Y-4.9
X4.85Y-5.0
X4.85Y-5.1
X4.85Y-5.2
X4.85Y-5.3
X4.85Y-5.4
X4.85Y-5.5
X4.85Y-5.6
X4.95Y-2.5
X4.95Y-2.6
X4.95Y-2.7
X4.95Y-2.8
X4.95Y-2.9
X4.95Y-3.0
X4.95Y-3.1
X4.95Y-3.2
X4.95Y-3.3
X4.95Y-3.4
X4.95Y-3.5
X4.95Y-3.6
X4.95Y-3.7
X4.95Y-3.8
X4.95Y-3.9
X4.95Y-4.0
X4.95Y-4.1
X4.95Y-4.2
X4.95Y-4.3
X4.95Y-4.4
X4.95Y-4.5
X4.95Y-4.6
X4.95Y-4.7
X4.95Y-4.8
X4.95Y-4.9
X4.95Y-5.0
X4.95Y-5.1
X4.95Y-5.2
X4.95Y-5.3
X4.95Y-5.4
X4.95Y-5.5
X4.95Y-5.6
X6.85Y-2.5
X6.85Y-2.6
X6.85Y-2.7
X6.85Y-2.8
X6.85Y-2.9
X6.85Y-3.0
X6.85Y-3.1
X6.85Y-3.2
X6.85Y-3.3
X6.85Y-3.4
X6.85Y-3.5
X6.85Y-3.6
X6.85Y-3.7
X6.85Y-3.8
X6.85Y-3.9
X6.85Y-4.0
X6.85Y-4.1
X6.85Y-4.2
X6.85Y-4.3
X6.85Y-4.4
X6.85Y-4.5
X6.85Y-4.6
X6.85Y-4.7
X6.85Y-4.8
X6.85Y-4.9
X6.85Y-5.0
X6.85Y-5.1
X6.85Y-5.2
X6.85Y-5.3
X6.85Y-5.4
X6.85Y-5.5
X6.85Y-5.6
X6.95Y-2.5
X6.95Y-2.6
X6.95Y-2.7
X6.95Y-2.8
X6.95Y-2.9
X6.95Y-3.0
X6.95Y-3.1
X6.95Y-3.2
X6.95Y-3.3
X6.95Y-3.4
X6.95Y-3.5
X6.95Y-3.6
X6.95Y-3.7
X6.95Y-3.8
X6.95Y-3.9
X6.95Y-4.0
X6.95Y-4.1
X6.95Y-4.2
X6.95Y-4.3
X6.95Y-4.4
X6.95Y-4.5
X6.95Y-4.6
X6.95Y-4.7
X6.95Y-4.8
X6.95Y-4.9
X6.95Y-5.0
X6.95Y-5.1
X6.95Y-5.2
X6.95Y-5.3
X6.95Y-5.4
X6.95Y-5.5
X6.95Y-5.6
X7.4Y-3.7
X7.4Y-3.8
X7.4Y-3.9
X7.4Y-4.0
X7.4Y-4.1
X7.4Y-4.2
X7.4Y-4.3
X7.4Y-4.4
X7.4Y-4.5
X7.4Y-4.6
X7.4Y-4.7
X7.4Y-4.8
X7.4Y-4.9
X7.4Y-5.0
X7.4Y-5.1
X7.4Y-5.2
X7.4Y-5.3
X7.4Y-5.4
X7.4Y-5.5
X7.4Y-5.6
X7.5Y-3.7
X7.5Y-3.8
X7.5Y-3.9
X7.5Y-4.0
X7.5Y-4.1
X7.5Y-4.2
X7.5Y-4.3
X7.5Y-4.4
X7.5Y-4.5
X7.5Y-4.6
X7.5Y-4.7
X7.5Y-4.8
X7.5Y-4.9
X7.5Y-5.0
X7.5Y-5.1
X7.5Y-5.2
X7.5Y-5.3
X7.5Y-5.4
X7.5Y-5.5
X7.5Y-5.6
T5
X3.9911Y-4.4478
X3.9911Y-4.625
X3.9941Y-3.4114
X3.9941Y-3.5886
X3.9941Y-3.7614
X3.9941Y-3.9386
X3.9941Y-4.1093
X3.9941Y-4.2864
X4.247Y-4.4478
X4.247Y-4.625
X4.25Y-3.4114
X4.25Y-3.5886
X4.25Y-3.7614
X4.25Y-3.9386
X4.25Y-4.1093
X4.25Y-4.2864
X4.3691Y-4.4478
X4.3691Y-4.625
X4.372Y-3.4114
X4.372Y-3.5886
X4.372Y-3.7614
X4.372Y-3.9386
X4.372Y-4.1093
X4.372Y-4.2864
X4.625Y-4.4478
X4.625Y-4.625
X4.628Y-3.4114
X4.628Y-3.5886
X4.628Y-3.7614
X4.628Y-3.9386
X4.628Y-4.1093
X4.628Y-4.2864
T6
X4.1Y-2.125
X4.15Y-5.7
X7.15Y-2.2
X7.725Y-5.75
T4
G00X7.589Y-2.1
M15
G01X7.648Y-2.1
M16
G05
G00X7.589Y-2.6394
M15
G01X7.648Y-2.6394
M16
G05
G00X7.589Y-2.8
M15
G01X7.648Y-2.8
M16
G05
G00X7.589Y-3.3394
M15
G01X7.648Y-3.3394
M16
G05
G00X7.65Y-2.4091
M15
G01X7.65Y-2.3303
M16
G05
G00X7.65Y-3.1091
M15
G01X7.65Y-3.0303
M16
G05
T0
M30
